<svg width="231" height="200" viewBox="0 0 231 200" fill="none" xmlns="http://www.w3.org/2000/svg">
<g clip-path="url(#clip0)">
<path opacity="0.1" d="M92.4102 185.315C136.212 185.315 171.72 184.053 171.72 182.497C171.72 180.94 136.212 179.678 92.4102 179.678C48.6084 179.678 13.1001 180.94 13.1001 182.497C13.1001 184.053 48.6084 185.315 92.4102 185.315Z" fill="#FF8822"/>
<path opacity="0.1" d="M71.1607 7.91456C78.9767 0.971298 91.2453 -0.444199 102.412 0.104916C137.49 1.84256 169.155 18.726 196.544 37.8255C206.458 44.7395 216.22 52.1903 222.658 61.7108C235.758 81.0933 231.871 107.941 213.659 123.917C207.461 129.347 199.951 133.513 192.231 137.203C178.523 143.768 163.716 149.037 148.15 150.538C137.047 151.607 125.811 150.736 114.774 149.245C83.9238 145.069 53.6685 135.849 28.299 120.076C17.1736 113.157 6.68704 104.556 2.10712 93.3642C-2.47279 82.172 0.452384 67.9902 11.8104 61.3667C16.5102 58.626 22.128 57.3886 27.6283 56.227C35.7233 54.5186 43.9505 52.8322 51.2549 49.3545C58.8016 45.7645 67.7362 38.8188 66.243 30.87C64.6397 22.3404 63.3619 14.8505 71.1607 7.91456Z" fill="#FF8822"/>
<path opacity="0.1" d="M31.0528 200C42.7671 200 52.2634 198.092 52.2634 195.739C52.2634 193.386 42.7671 191.478 31.0528 191.478C19.3386 191.478 9.84229 193.386 9.84229 195.739C9.84229 198.092 19.3386 200 31.0528 200Z" fill="#FF8822"/>
<path opacity="0.1" d="M209.762 186.482C221.477 186.482 230.973 185.644 230.973 184.61C230.973 183.576 221.477 182.738 209.762 182.738C198.048 182.738 188.552 183.576 188.552 184.61C188.552 185.644 198.048 186.482 209.762 186.482Z" fill="#FF8822"/>
<path d="M125.728 39.0969H62.8745V52.9419H125.728V39.0969Z" fill="#464A5F"/>
<path opacity="0.1" d="M125.728 39.0969H62.8745V39.456H125.728V39.0969Z" fill="black"/>
<path d="M129.067 8.43701H59.8101V39.0947H129.067V8.43701Z" fill="#65617D"/>
<path d="M34.0784 8.43701H60.8921V73.2619H29.3296V13.1789C29.3296 11.9232 29.8299 10.719 30.7205 9.83106C31.6111 8.94315 32.8189 8.44433 34.0784 8.44433V8.43701Z" fill="#65617D"/>
<path opacity="0.1" d="M56.8774 12.5271H34.0635V69.8889H56.8774V12.5271Z" fill="black"/>
<path d="M56.5175 12.1685H33.7036V69.5303H56.5175V12.1685Z" fill="#D1D9EC"/>
<path opacity="0.1" d="M56.5178 68.9251C57.8008 68.9251 58.8408 67.8881 58.8408 66.609C58.8408 65.3299 57.8008 64.293 56.5178 64.293C55.2349 64.293 54.1948 65.3299 54.1948 66.609C54.1948 67.8881 55.2349 68.9251 56.5178 68.9251Z" fill="black"/>
<path d="M56.5178 68.5637C57.8008 68.5637 58.8408 67.5268 58.8408 66.2477C58.8408 64.9686 57.8008 63.9316 56.5178 63.9316C55.2349 63.9316 54.1948 64.9686 54.1948 66.2477C54.1948 67.5268 55.2349 68.5637 56.5178 68.5637Z" fill="#464A5F"/>
<path d="M127.354 8.43701H153.925C154.581 8.43733 155.231 8.56659 155.837 8.81739C156.443 9.06819 156.993 9.43562 157.457 9.89867C157.92 10.3617 158.288 10.9113 158.538 11.516C158.789 12.1208 158.917 12.7688 158.916 13.423V73.2619H127.354V8.43701Z" fill="#65617D"/>
<path opacity="0.1" d="M154.901 12.5271H132.087V69.8889H154.901V12.5271Z" fill="black"/>
<path d="M154.541 12.1685H131.728V69.5303H154.541V12.1685Z" fill="#D1D9EC"/>
<path opacity="0.1" d="M154.544 68.9251C155.827 68.9251 156.867 67.8881 156.867 66.609C156.867 65.3299 155.827 64.293 154.544 64.293C153.261 64.293 152.221 65.3299 152.221 66.609C152.221 67.8881 153.261 68.9251 154.544 68.9251Z" fill="black"/>
<path d="M154.544 68.5637C155.827 68.5637 156.867 67.5268 156.867 66.2477C156.867 64.9686 155.827 63.9316 154.544 63.9316C153.261 63.9316 152.221 64.9686 152.221 66.2477C152.221 67.5268 153.261 68.5637 154.544 68.5637Z" fill="#464A5F"/>
<path opacity="0.1" d="M90.0409 12.5271H65.4009V37.0933H90.0409V12.5271Z" fill="black"/>
<path d="M89.681 12.1685H65.041V36.7347H89.681V12.1685Z" fill="#D1D9EC"/>
<path opacity="0.1" d="M89.6812 38.5797C90.5031 38.5797 91.1694 37.9154 91.1694 37.0959C91.1694 36.2764 90.5031 35.6121 89.6812 35.6121C88.8592 35.6121 88.1929 36.2764 88.1929 37.0959C88.1929 37.9154 88.8592 38.5797 89.6812 38.5797Z" fill="black"/>
<path d="M89.6812 38.2208C90.5031 38.2208 91.1694 37.5565 91.1694 36.737C91.1694 35.9175 90.5031 35.2532 89.6812 35.2532C88.8592 35.2532 88.1929 35.9175 88.1929 36.737C88.1929 37.5565 88.8592 38.2208 89.6812 38.2208Z" fill="#464A5F"/>
<path opacity="0.1" d="M97.7541 37.0957H122.394V12.5295L97.7541 12.5295V37.0957Z" fill="black"/>
<path d="M98.1139 36.7371H122.754V12.1709L98.1139 12.1709V36.7371Z" fill="#D1D9EC"/>
<path opacity="0.1" d="M98.1138 38.5797C98.9357 38.5797 99.6021 37.9154 99.6021 37.0959C99.6021 36.2764 98.9357 35.6121 98.1138 35.6121C97.2918 35.6121 96.6255 36.2764 96.6255 37.0959C96.6255 37.9154 97.2918 38.5797 98.1138 38.5797Z" fill="black"/>
<path d="M98.1138 38.2208C98.9357 38.2208 99.6021 37.5565 99.6021 36.737C99.6021 35.9175 98.9357 35.2532 98.1138 35.2532C97.2918 35.2532 96.6255 35.9175 96.6255 36.737C96.6255 37.5565 97.2918 38.2208 98.1138 38.2208Z" fill="#464A5F"/>
<path opacity="0.1" d="M94.4372 8.43701H93.4458V39.0947H94.4372V8.43701Z" fill="black"/>
<path opacity="0.1" d="M69.1901 50.7847H65.041V52.044H69.1901V50.7847Z" fill="black"/>
<path d="M69.1901 50.4233H65.041V51.6827H69.1901V50.4233Z" fill="#53526B"/>
<path opacity="0.1" d="M117.253 49.2544H95.5215V52.0415H117.253V49.2544Z" fill="black"/>
<path d="M117.253 48.8955H95.5215V51.6826H117.253V48.8955Z" fill="#53526B"/>
<path opacity="0.1" d="M107.935 51.1873C108.233 51.1873 108.476 50.9459 108.476 50.648C108.476 50.3501 108.233 50.1086 107.935 50.1086C107.636 50.1086 107.394 50.3501 107.394 50.648C107.394 50.9459 107.636 51.1873 107.935 51.1873Z" fill="black"/>
<path d="M107.935 50.8285C108.233 50.8285 108.476 50.587 108.476 50.2891C108.476 49.9912 108.233 49.7498 107.935 49.7498C107.636 49.7498 107.394 49.9912 107.394 50.2891C107.394 50.587 107.636 50.8285 107.935 50.8285Z" fill="#B65256"/>
<path opacity="0.1" d="M111.031 51.1873C111.33 51.1873 111.572 50.9459 111.572 50.648C111.572 50.3501 111.33 50.1086 111.031 50.1086C110.732 50.1086 110.49 50.3501 110.49 50.648C110.49 50.9459 110.732 51.1873 111.031 51.1873Z" fill="black"/>
<path d="M111.031 50.8285C111.33 50.8285 111.572 50.587 111.572 50.2891C111.572 49.9912 111.33 49.7498 111.031 49.7498C110.732 49.7498 110.49 49.9912 110.49 50.2891C110.49 50.587 110.732 50.8285 111.031 50.8285Z" fill="#FFD77C"/>
<path d="M166.085 114.782H22.1621V175.92H166.085V114.782Z" fill="#65617D"/>
<path opacity="0.1" d="M166.085 114.782H22.1621V116.042H166.085V114.782Z" fill="black"/>
<path d="M167.98 112.444H20.2676V115.68H167.98V112.444Z" fill="#65617D"/>
<path opacity="0.1" d="M167.98 112.444H20.2676V112.984H167.98V112.444Z" fill="black"/>
<path d="M170.714 111.546H17.5308V112.625H170.714V111.546Z" fill="#65617D"/>
<path opacity="0.1" d="M58.3217 116.94H26.7593V126.65H58.3217V116.94Z" fill="black"/>
<path d="M58.6841 116.581H27.1216V126.292H58.6841V116.581Z" fill="#D1D9EC"/>
<path opacity="0.1" d="M58.3217 131.055H26.7593V150.745H58.3217V131.055Z" fill="black"/>
<path d="M58.6841 130.694H27.1216V150.384H58.6841V130.694Z" fill="#D1D9EC"/>
<path opacity="0.1" d="M58.3217 153.711H26.7593V173.401H58.3217V153.711Z" fill="black"/>
<path d="M58.6841 153.352H27.1216V173.042H58.6841V153.352Z" fill="#D1D9EC"/>
<path opacity="0.1" d="M47.0496 120.896H38.0317V122.694H47.0496V120.896Z" fill="black"/>
<path d="M47.0496 120.537H38.0317V122.336H47.0496V120.537Z" fill="#464A5F"/>
<path opacity="0.1" d="M164.553 116.94H132.991V126.65H164.553V116.94Z" fill="black"/>
<path d="M164.913 116.581H133.351V126.292H164.913V116.581Z" fill="#D1D9EC"/>
<path d="M164.913 129.528H133.351V171.785H164.913V129.528Z" fill="#D1D9EC"/>
<path d="M153.281 120.537H144.263V122.336H153.281V120.537Z" fill="#464A5F"/>
<path opacity="0.1" d="M47.0496 140.405H38.0317V142.204H47.0496V140.405Z" fill="black"/>
<path d="M47.0496 140.046H38.0317V141.845H47.0496V140.046Z" fill="#464A5F"/>
<path opacity="0.1" d="M47.0496 161.264H38.0317V163.063H47.0496V161.264Z" fill="black"/>
<path d="M47.0496 160.905H38.0317V162.704H47.0496V160.905Z" fill="#464A5F"/>
<path opacity="0.1" d="M160.989 133.977H137.994V168.051H160.989V133.977Z" fill="black"/>
<path opacity="0.3" d="M160.629 133.618H137.634V167.693H160.629V133.618Z" fill="#FF8822"/>
<path opacity="0.1" d="M167.98 175.317H20.2676V181.43H167.98V175.317Z" fill="black"/>
<path d="M167.98 175.561H20.2676V181.674H167.98V175.561Z" fill="#65617D"/>
<path d="M130.645 119.741H61.3887V164.246H130.645V119.741Z" fill="#464A5F"/>
<path opacity="0.1" d="M62.1992 123.339C62.1992 123.339 101.066 127.295 129.561 123.517V127.024C129.561 127.024 100.432 130.621 62.1992 126.394V123.339Z" fill="black"/>
<path d="M62.1992 122.978C62.1992 122.978 101.066 126.934 129.561 123.158V126.665C129.561 126.665 100.432 130.26 62.1992 126.035V122.978Z" fill="#D1D9EC"/>
<path opacity="0.3" d="M122.844 131.519H69.1875V156.964H122.844V131.519Z" fill="#FF8822"/>
<path opacity="0.1" d="M130.645 119.741H61.3887V121.091H130.645V119.741Z" fill="black"/>
<path d="M131.728 110.482H60.3071V120.732H131.728V110.482Z" fill="#464A5F"/>
<path opacity="0.1" d="M66.167 117.762C67.6109 117.762 68.7813 116.595 68.7813 115.156C68.7813 113.716 67.6109 112.549 66.167 112.549C64.7232 112.549 63.5527 113.716 63.5527 115.156C63.5527 116.595 64.7232 117.762 66.167 117.762Z" fill="black"/>
<path d="M66.167 117.403C67.6109 117.403 68.7813 116.236 68.7813 114.797C68.7813 113.357 67.6109 112.19 66.167 112.19C64.7232 112.19 63.5527 113.357 63.5527 114.797C63.5527 116.236 64.7232 117.403 66.167 117.403Z" fill="#D1D9EC"/>
<path opacity="0.1" d="M72.5708 117.762C74.0147 117.762 75.1851 116.595 75.1851 115.156C75.1851 113.716 74.0147 112.549 72.5708 112.549C71.127 112.549 69.9565 113.716 69.9565 115.156C69.9565 116.595 71.127 117.762 72.5708 117.762Z" fill="black"/>
<path d="M72.5708 117.403C74.0147 117.403 75.1851 116.236 75.1851 114.797C75.1851 113.357 74.0147 112.19 72.5708 112.19C71.127 112.19 69.9565 113.357 69.9565 114.797C69.9565 116.236 71.127 117.403 72.5708 117.403Z" fill="#D1D9EC"/>
<path opacity="0.1" d="M119.643 117.762C121.086 117.762 122.257 116.595 122.257 115.156C122.257 113.716 121.086 112.549 119.643 112.549C118.199 112.549 117.028 113.716 117.028 115.156C117.028 116.595 118.199 117.762 119.643 117.762Z" fill="black"/>
<path d="M119.643 117.403C121.086 117.403 122.257 116.236 122.257 114.797C122.257 113.357 121.086 112.19 119.643 112.19C118.199 112.19 117.028 113.357 117.028 114.797C117.028 116.236 118.199 117.403 119.643 117.403Z" fill="#D1D9EC"/>
<path opacity="0.1" d="M126.046 117.762C127.49 117.762 128.66 116.595 128.66 115.156C128.66 113.716 127.49 112.549 126.046 112.549C124.602 112.549 123.432 113.716 123.432 115.156C123.432 116.595 124.602 117.762 126.046 117.762Z" fill="black"/>
<path d="M126.046 117.403C127.49 117.403 128.66 116.236 128.66 114.797C128.66 113.357 127.49 112.19 126.046 112.19C124.602 112.19 123.432 113.357 123.432 114.797C123.432 116.236 124.602 117.403 126.046 117.403Z" fill="#D1D9EC"/>
<path opacity="0.1" d="M105.668 112.278H85.7373V118.482H105.668V112.278Z" fill="black"/>
<path d="M105.396 111.919H86.0972V118.123H105.396V111.919Z" fill="#53526B"/>
<path opacity="0.1" d="M66.8891 111.626H66.167V117.964H66.8891V111.626Z" fill="black"/>
<path d="M66.5292 111.626H65.8071V117.964H66.5292V111.626Z" fill="#53526B"/>
<path opacity="0.1" d="M126.768 111.626H126.046V117.964H126.768V111.626Z" fill="black"/>
<path d="M126.409 111.626H125.687V117.964H126.409V111.626Z" fill="#53526B"/>
<path opacity="0.1" d="M122.148 113.17L121.637 112.661L117.142 117.143L117.653 117.652L122.148 113.17Z" fill="black"/>
<path d="M122.147 112.81L121.636 112.301L117.141 116.783L117.652 117.292L122.147 112.81Z" fill="#53526B"/>
<path opacity="0.1" d="M75.748 115.517V114.797H69.391V115.517H75.748Z" fill="black"/>
<path d="M75.7505 115.156V114.436H69.3934V115.156H75.7505Z" fill="#53526B"/>
<path opacity="0.1" d="M130.645 163.195H61.3887V164.244H130.645V163.195Z" fill="black"/>
<path d="M131.728 163.556H60.3071V181.867H131.728V163.556Z" fill="#464A5F"/>
<path d="M57.1441 94.7602C56.799 94.0915 54.9729 89.9499 54.9729 89.9499L51.9156 82.0476C51.9156 82.0476 49.7443 78.7163 49.7443 78.0964C49.7443 77.4765 45.7959 75.0018 45.7959 75.0018C45.7959 75.0018 42.5893 74.05 42.342 73.9548C42.0948 73.8596 38.2958 72.6052 38.2958 72.6052C38.2958 72.6052 36.8001 70.6528 36.5823 71.158L36.5602 71.1214C36.2541 70.5516 36.0605 69.9286 35.9899 69.2861C35.9899 69.23 35.9728 69.169 35.9654 69.1104C36.9511 68.4447 37.759 67.5492 38.3191 66.5018C38.8792 65.4543 39.1745 64.2864 39.1794 63.0994C39.1818 62.7895 39.1646 62.4798 39.128 62.172C39.1544 62.155 39.1823 62.1403 39.2113 62.1281C39.2725 62.1012 39.2578 62.0793 39.2113 62.0573L39.2578 62.0354C39.341 61.9987 39.2871 61.9719 39.2064 61.9402C39.319 61.8914 39.177 61.8596 39.0644 61.8084C39.0644 61.7767 39.0521 61.7425 39.0448 61.7108C39.0715 61.6488 39.0872 61.5828 39.0913 61.5155L39.1207 61.5302C39.15 61.4074 39.15 61.2795 39.1207 61.1568C39.1147 61.1819 39.1066 61.2064 39.0962 61.23C39.0914 61.1123 39.0649 60.9964 39.0179 60.8883C38.9606 60.8039 38.8904 60.729 38.8098 60.6662L38.7902 60.6516L39.0007 58.5161C42.085 58.3697 42.626 53.147 41.9235 52.8468C41.2209 52.5466 41.9235 51.9243 41.9235 50.665C41.9235 49.4057 39.5956 48 39.5956 48C39.5956 48 38.6164 48.4881 37.1061 46.0622C35.5958 43.6363 30.0074 43.2507 29.6353 43.8804C29.2632 44.51 26.7664 45.3447 23.5157 46.255C20.265 47.1653 20.8647 51.0042 21.4057 51.8291C21.8519 52.5099 22.1134 53.2945 22.1645 54.1061C22.1645 54.5942 23.1926 56.6247 23.1926 56.6247C22.867 57.33 23.6821 61.1934 23.9269 62.2916C23.9269 62.3258 23.9269 62.3599 23.9269 62.3941C23.9154 62.4115 23.9048 62.4294 23.8951 62.4478C23.8425 62.5622 23.8254 62.6897 23.8462 62.8139C23.8276 62.9489 23.8462 63.0864 23.9 63.2117C23.9191 64.246 24.1593 65.2643 24.6047 66.1986C25.05 67.1329 25.6902 67.9617 26.4825 68.6296C26.4825 68.6955 26.4825 68.7614 26.4947 68.8297C26.5388 69.7278 26.5657 70.7821 26.5192 71.8023C26.5192 71.8535 26.5192 71.9048 26.5192 71.956C26.3402 71.9928 26.1723 72.0706 26.0287 72.1833C25.8851 72.296 25.7698 72.4404 25.6918 72.6052C25.3858 73.1934 23.6112 74.0964 23.6112 74.0964C23.6112 74.0964 20.5024 74.2404 20.2062 74.8114C19.91 75.3825 15.4207 77.2861 15.4207 77.2861C15.4207 77.2861 13.0512 78.6674 13.3963 80.2391C13.5775 81.0592 13.0708 82.3355 12.5469 83.3654C11.4482 82.9513 10.3046 82.667 9.13953 82.5186L11.6559 84.9176L11.5727 85.047L10.1407 90.0939C10.1407 90.0939 9.65112 91.856 9.16156 92.2904C8.67199 92.7248 9.60461 96.6223 9.60461 96.6223C9.60461 96.6223 9.06364 99.385 8.62548 100.098C8.18731 100.81 9.31577 102.575 9.31577 102.575L11.5874 107.714L17.587 109.232L18.6347 109.455C18.6151 109.577 18.5955 109.699 18.5735 109.823C18.2822 111.461 17.9028 112.966 17.4377 113.374C16.3044 114.375 16.3533 118.848 16.3533 118.848L16.4023 125.181C16.4023 125.181 16.7964 132.991 16.6005 133.274C16.4757 133.455 16.7254 133.747 17.3839 134.006C17.3667 134.126 17.3471 134.25 17.33 134.365C17.144 135.661 17.0607 137.137 17.4867 137.782C17.6716 138.135 17.773 138.525 17.7829 138.924C17.7829 139.544 18.7204 140.83 18.7204 140.83C18.7204 140.83 17.986 146.113 19.2099 147.922C20.4339 149.73 21.4791 153.015 20.8867 153.779C20.8867 153.779 19.8513 156.017 20.3457 157.018C20.8402 158.018 20.3457 158.589 19.702 158.826C19.0582 159.063 19.1169 161.023 19.1169 161.023L20.2943 170.296C20.2943 170.296 20.9357 172.203 20.3947 172.869C19.8537 173.535 19.8513 176.866 20.6909 178.011C21.5305 179.156 19.4988 181.269 19.4988 181.269C19.4988 181.269 18.2749 183.031 20.2331 183.602C20.2331 183.602 20.6272 183.697 19.888 184.459C19.1487 185.22 18.9994 186.167 19.4939 186.506C19.5969 186.567 19.7041 186.62 19.8146 186.665C19.795 186.777 19.7754 186.894 19.7509 187.019C19.5624 188.012 19.205 189.308 18.5564 189.933C17.2976 191.218 16.2115 192.661 15.3252 194.226C14.6472 195.507 14.3461 196.703 15.1025 197.267C16.8796 198.599 19.1487 199.026 20.4877 198.504C21.8267 197.982 23.6944 196.361 23.6944 196.361L24.1399 194.504C24.1399 194.504 23.8437 193.362 25.3222 192.932C26.8007 192.503 28.1837 190.98 28.1837 190.98V188.505C28.543 188.302 28.8896 188.077 29.2216 187.832C29.2216 187.832 29.9119 185.403 29.2216 184.595C28.5313 183.788 28.2841 183.5 29.1727 182.975C30.0612 182.45 30.1812 181.311 29.5276 180.31C28.874 179.309 27.8386 177.835 28.7271 175.739C29.6157 173.642 29.9511 167.217 29.9511 167.217C29.9511 167.217 29.5374 162.838 29.9511 161.847C30.3648 160.857 29.4762 158.848 29.4762 158.848C29.4762 158.848 29.7601 156.376 30.3158 155.221C30.8715 154.067 31.2949 148.032 31.2949 148.032C31.2949 148.032 32.2741 145.462 32.2741 143.795C32.2741 142.128 30.7466 138.131 33.0084 137.081C33.0084 137.081 33.9876 137.94 33.6008 141.367C33.6008 141.367 34.7342 145.367 34.7342 146.604C34.7342 147.841 35.5738 152.317 35.5738 152.317C35.5738 152.317 35.6717 153.745 36.0168 154.27C36.362 154.794 36.0168 156.222 36.0168 156.222C36.0168 156.222 37.2995 157.413 36.9543 158.174C36.6092 158.936 37.0131 160.654 37.0131 160.654L36.7071 171.314C36.7071 171.314 35.821 175.885 37.8919 178.636C37.8919 178.636 37.1575 182.682 36.7071 182.968C36.2567 183.253 38.3374 185.73 38.3374 185.73C38.3374 185.73 37.7621 187.334 38.9298 187.412V190.062C39.334 190.776 39.8895 191.393 40.5576 191.871C41.642 192.632 41.1989 195.251 41.1989 195.251C41.1989 195.251 42.5795 198.584 46.2317 197.869C49.8838 197.154 50.3759 196.822 50.1776 195.631C50.1066 195.197 49.9499 194.411 49.7223 193.542C49.3306 192.015 48.7285 190.17 48.0088 189.259C46.8754 187.824 45.9379 184.825 45.9379 184.825C45.9379 184.825 45.4924 183.824 45.9379 183.492C46.3834 183.16 46.1827 182.541 46.1827 182.541C46.1827 182.541 46.6135 181.303 46.2243 180.542C45.8351 179.78 46.9709 178.209 46.9709 178.209L46.6258 170.887L46.9709 160.222C46.9709 160.222 45.441 158.46 46.0823 157.413C46.7237 156.366 45.348 154.89 45.348 154.89C45.348 154.89 45.1987 154.843 45.5928 153.652C45.8287 152.95 45.7929 152.186 45.4924 151.509C45.4924 151.509 44.6553 148.559 46.1338 146.321C46.1338 146.321 46.7751 143.368 46.9734 141.845C47.1104 140.786 47.9525 136.832 48.469 134.523L48.5522 134.148C49.2866 134.187 49.8349 134.233 49.8349 134.233C49.8349 134.233 48.7015 126.377 49.8349 124.759C50.9682 123.141 48.9463 110.763 48.9463 110.763C48.9463 110.763 48.4568 108.6 48.1655 106.392C48.1483 106.267 48.1336 106.148 48.1165 106.016C49.0324 105.941 49.952 105.921 50.8703 105.955C53.2398 106.096 55.5579 105.193 55.6069 104.288C55.6559 103.383 56.941 99.8121 57.1368 99.0042C57.3326 98.1964 57.4868 95.4264 57.1441 94.7602Z" fill="url(#paint0_linear)"/>
<path d="M28.3576 186.599V191.007C28.3576 191.007 27.026 192.525 25.5989 192.959C24.1718 193.394 24.4582 194.524 24.4582 194.524L24.0323 196.371C24.0323 196.371 22.2233 197.982 20.9406 198.504C19.658 199.026 17.4696 198.599 15.7586 197.272C15.0242 196.713 15.3204 195.519 15.974 194.245C16.8238 192.694 17.8703 191.258 19.0876 189.972C19.7118 189.35 20.0668 188.059 20.2381 187.07C20.3752 186.338 20.4168 185.755 20.4168 185.755L28.3576 186.599Z" fill="#4C495A"/>
<path opacity="0.1" d="M28.3576 189.889V191.007C28.3576 191.007 27.026 192.525 25.5989 192.959C24.1718 193.393 24.4582 194.523 24.4582 194.523L24.0323 196.371C24.0323 196.371 22.2233 197.982 20.9406 198.504C19.658 199.026 17.4696 198.599 15.7586 197.271C15.0242 196.713 15.3204 195.519 15.974 194.245C15.9422 195.585 16.3412 197.088 18.2774 197.035C20.3702 196.964 22.3857 196.229 24.0298 194.936C24.0298 194.936 23.9809 191.81 26.1692 191.097C26.969 190.836 27.7117 190.426 28.3576 189.889Z" fill="black"/>
<path d="M45.7543 197.882C42.2368 198.592 40.9052 195.273 40.9052 195.273C40.9052 195.273 41.3335 192.666 40.2883 191.907C39.6413 191.427 39.1061 190.812 38.7192 190.106V185.747L42.9981 182.714L45.3137 184.757L45.4704 184.893C45.4704 184.893 46.3736 187.88 47.4678 189.308C48.1606 190.214 48.7407 192.051 49.1201 193.574C49.338 194.448 49.4897 195.222 49.5583 195.653C49.7492 196.837 49.2743 197.169 45.7543 197.882Z" fill="#4C495A"/>
<path opacity="0.1" d="M45.7543 197.882C42.2368 198.592 40.9052 195.273 40.9052 195.273C40.9052 195.273 41.3335 192.666 40.2883 191.907C39.6413 191.426 39.1061 190.812 38.7192 190.106V188.417C39.3973 189.132 40.6775 190.516 40.9541 191.102C41.3335 191.907 41.3825 194.848 43.14 195.368C44.8976 195.888 48.3221 196.364 48.6085 195.036C48.7261 194.531 48.8976 194.04 49.1201 193.572C49.338 194.445 49.4897 195.219 49.5583 195.651C49.7492 196.837 49.2743 197.169 45.7543 197.882Z" fill="black"/>
<path opacity="0.1" d="M20.4145 185.747L28.3578 186.599V188.93C27.4619 189.459 26.1792 190.021 25.4571 189.442C24.3923 188.593 21.2272 187.514 20.2383 187.063C20.3729 186.321 20.4145 185.747 20.4145 185.747Z" fill="black"/>
<path opacity="0.1" d="M45.4704 185.272C44.3762 184.893 42.4277 186.553 39.8599 187.595C39.5024 187.759 39.1129 187.843 38.7192 187.839V185.738L42.9981 182.704L45.3137 184.747C45.3494 184.926 45.4019 185.102 45.4704 185.272Z" fill="black"/>
<path d="M48.276 133.086C48.276 133.086 48.1242 133.781 47.9113 134.794C47.4217 137.098 46.5992 141.037 46.4695 142.091C46.2786 143.607 45.6617 146.545 45.6617 146.545C44.2346 148.774 45.0424 151.712 45.0424 151.712C45.3311 152.388 45.365 153.146 45.1379 153.845C44.7584 155.031 44.8931 155.065 44.8931 155.065C44.8931 155.065 46.2247 156.529 45.6054 157.579C44.9861 158.628 46.4621 160.376 46.4621 160.376L46.1292 170.992L46.4719 178.304C46.4719 178.304 45.3777 179.868 45.7523 180.627C46.1268 181.386 45.7107 182.619 45.7107 182.619C45.7107 182.619 45.9016 183.234 45.4659 183.565C45.0302 183.897 45.4659 184.893 45.4659 184.893C44.3717 184.515 42.4232 186.172 39.8554 187.217C37.2876 188.261 38.1419 185.794 38.1419 185.794C38.1419 185.794 36.1445 183.329 36.5729 183.043C37.0012 182.758 37.7136 178.731 37.7136 178.731C35.7161 175.983 36.5729 171.431 36.5729 171.431L36.8666 160.817C36.8666 160.817 36.4774 159.109 36.8103 158.35C37.1432 157.591 35.907 156.398 35.907 156.398C35.907 156.398 36.24 154.977 35.907 154.445C35.5741 153.913 35.4787 152.493 35.4787 152.493C35.4787 152.493 34.6709 148.037 34.6709 146.804C34.6709 145.572 33.5767 141.591 33.5767 141.591C33.9586 138.174 33.0064 137.325 33.0064 137.325C30.8204 138.367 32.294 142.348 32.294 144.007C32.294 145.667 31.3443 148.227 31.3443 148.227C31.3443 148.227 30.9159 154.245 30.3921 155.382C29.8682 156.52 29.5818 159.011 29.5818 159.011C29.5818 159.011 30.4386 161.003 30.0371 161.999C29.6357 162.994 30.0371 167.368 30.0371 167.368C30.0371 167.368 29.7238 173.767 28.8695 175.851C28.0152 177.935 29.0115 179.407 29.6406 180.403C30.2697 181.398 30.1522 182.536 29.2954 183.055C28.4387 183.575 28.6786 183.863 29.3444 184.669C30.0102 185.474 29.3444 187.893 29.3444 187.893C29.3444 187.893 26.6346 190.026 25.445 189.076C24.2553 188.127 20.4538 186.897 19.9789 186.565C19.5041 186.233 19.646 185.284 20.3584 184.527C21.0707 183.77 20.6913 183.673 20.6913 183.673C18.7893 183.104 19.9789 181.35 19.9789 181.35C19.9789 181.35 21.9372 179.265 21.1196 178.128C20.3021 176.991 20.3119 173.672 20.8332 173.003C21.3546 172.334 20.7378 170.443 20.7378 170.443L19.6044 161.201C19.6044 161.201 19.5506 159.248 20.1674 159.019C20.7843 158.789 21.2616 158.213 20.7867 157.218C20.3119 156.222 21.3081 153.996 21.3081 153.996C21.8809 153.237 20.8822 149.967 19.6926 148.166C18.5029 146.365 19.2177 141.103 19.2177 141.103C19.2177 141.103 18.3144 139.822 18.3144 139.207C18.3052 138.811 18.2074 138.422 18.028 138.069C17.6192 137.418 17.6976 135.949 17.8763 134.653C18.05 133.406 18.3144 132.329 18.3144 132.329L48.276 133.086Z" fill="#5F5D7E"/>
<path d="M38.9567 79.3801L29.5815 81.562C29.5815 81.562 24.9795 77.6742 26.1202 75.5949C26.5119 74.8798 26.6857 73.6571 26.7444 72.3637C26.7909 71.3533 26.764 70.2966 26.7224 69.4033C26.6538 68.1123 26.5486 67.1581 26.5486 67.1581C26.5486 67.1581 36.1515 61.7548 35.8186 67.1581C35.7506 68.0585 35.772 68.9634 35.8822 69.8597C35.9506 70.4989 36.1382 71.1197 36.4354 71.6901C36.9495 72.6004 37.5835 72.615 37.5835 72.615L38.9567 79.3801Z" fill="#FDC2CC"/>
<path opacity="0.1" d="M35.8824 69.8524C34.529 70.8206 32.8863 71.3026 31.2226 71.2197C29.5589 71.1368 27.9725 70.4939 26.7226 69.396C26.6541 68.105 26.5488 67.1507 26.5488 67.1507C26.5488 67.1507 36.1517 61.7474 35.8188 67.1507C35.7509 68.0512 35.7722 68.9561 35.8824 69.8524Z" fill="black"/>
<path d="M31.5887 71.0386C35.6579 71.0386 38.9567 67.7497 38.9567 63.6926C38.9567 59.6356 35.6579 56.3467 31.5887 56.3467C27.5195 56.3467 24.2207 59.6356 24.2207 63.6926C24.2207 67.7497 27.5195 71.0386 31.5887 71.0386Z" fill="#FDC2CC"/>
<path opacity="0.1" d="M38.9567 79.38L29.5815 81.5618C29.5815 81.5618 24.9795 77.6741 26.1202 75.5948C26.5119 74.8797 26.6857 73.657 26.7444 72.3635C26.9529 73.489 27.5612 74.5019 28.4579 75.2165C30.5973 76.6393 30.2644 78.3891 30.2644 78.3891L34.1149 78.2476C33.8701 76.6832 35.3045 75.8315 35.7794 75.6411C36.2543 75.4508 36.0242 74.599 36.0242 74.599L36.4354 71.6899C36.9495 72.6003 37.5835 72.6149 37.5835 72.6149L38.9567 79.38Z" fill="black"/>
<path opacity="0.1" d="M48.2757 133.086C48.2757 133.086 48.1239 133.782 47.911 134.795C46.8755 134.741 45.5072 134.699 44.9001 134.838C43.8549 135.082 39.6691 135.17 39.6691 135.17L29.3049 135.536V135.219C28.1131 135.231 26.9231 135.313 25.7409 135.463C23.9809 135.707 21.2246 135.368 19.4646 135.082C18.923 135.005 18.3928 134.863 17.8857 134.658C18.0595 133.411 18.3239 132.334 18.3239 132.334L48.2757 133.086Z" fill="black"/>
<path d="M47.4679 102.985C47.3161 103.871 47.4262 105.34 47.6172 106.787C47.9036 108.983 48.3711 111.138 48.3711 111.138C48.3711 111.138 50.3294 123.463 49.2254 125.074C48.1214 126.685 49.2254 134.506 49.2254 134.506C49.2254 134.506 45.9453 134.223 44.9001 134.46C43.8548 134.697 39.669 134.792 39.669 134.792L29.3049 135.158V134.838C28.1131 134.85 26.923 134.932 25.7408 135.082C23.9808 135.326 21.2245 134.987 19.4645 134.704C17.7046 134.421 16.9922 133.85 17.1832 133.567C17.3741 133.284 16.9922 125.513 16.9922 125.513L16.9457 119.209C16.9457 119.209 16.8968 114.753 17.9909 113.757C18.4365 113.352 18.8036 111.854 19.0851 110.221C19.4866 107.861 19.702 105.225 19.702 105.225L12.476 85.945L12.334 85.5643C12.334 85.5643 14.4244 82.3404 14.0915 80.776C13.7586 79.2117 16.0498 77.8474 16.0498 77.8474C16.0498 77.8474 20.3751 75.9511 20.6615 75.3825C20.9479 74.8138 23.9417 74.6723 23.9417 74.6723C23.9417 74.6723 25.6551 73.7718 25.9464 73.1885C26.0185 73.0253 26.1285 72.8816 26.2672 72.7692C26.406 72.6568 26.5695 72.5788 26.7444 72.5417C26.9459 73.68 27.5547 74.7067 28.4579 75.4313C30.5973 76.8517 30.2644 78.604 30.2644 78.604L34.1149 78.4624C33.8701 76.898 35.3045 76.0439 35.7794 75.8559C36.2543 75.668 36.0242 74.8114 36.0242 74.8114L36.4697 71.7437C36.6753 71.2336 38.1147 73.186 38.1147 73.186C38.1147 73.186 41.7864 74.4331 42.0141 74.5283C42.2417 74.6235 45.3431 75.5704 45.3431 75.5704C45.3431 75.5704 49.1446 78.0353 49.1446 78.6503C49.1446 79.2653 51.2375 82.5869 51.2375 82.5869C51.2375 82.5869 51.2131 82.7187 51.1665 82.9603C50.6696 85.5448 47.8155 100.947 47.4679 102.985Z" fill="#FF8822"/>
<path d="M32.2547 95.3068C32.2547 95.3068 24.03 93.1274 23.2198 92.6052C22.4095 92.0829 17.6583 95.1165 23.4645 99.2409C23.4645 99.2409 30.5633 100.705 32.4555 99.2409C34.3476 97.7766 32.2547 95.3068 32.2547 95.3068Z" fill="#FDC2CC"/>
<path opacity="0.1" d="M50.0334 82.3184L51.0321 82.3672L53.9695 90.2354C53.9695 90.2354 55.7295 94.3599 56.0624 95.0237C56.3953 95.6875 56.2533 98.4404 56.0624 99.2409C55.8715 100.041 54.6353 103.602 54.5937 104.503C54.5521 105.403 52.3123 106.304 50.0285 106.162C47.7446 106.021 42.423 106.731 42.423 106.731C42.423 106.731 36.7367 106.138 33.2461 107.914C33.2461 107.914 31.0136 103.317 31.2511 94.7357C31.2511 94.7357 35.197 94.4917 36.1957 94.8773C37.1944 95.2629 42.0436 96.3416 42.6605 95.7778C43.2773 95.214 46.0874 96.8223 46.0874 96.8223C46.2306 96.5098 46.3047 96.1702 46.3047 95.8266C46.3047 95.483 46.2306 95.1434 46.0874 94.8309C45.6126 93.6936 44.8048 90.1378 45.8427 89.0005C46.8805 87.8632 50.0334 82.3184 50.0334 82.3184Z" fill="black"/>
<path opacity="0.1" d="M47.6173 106.787C45.2576 106.946 42.6188 107.299 42.6188 107.299C42.6188 107.299 36.9325 106.706 33.4419 108.483C33.4419 108.483 31.207 103.885 31.4444 95.3043C31.4444 95.3043 35.3903 95.0602 36.3891 95.4458C37.3878 95.8314 42.237 96.9101 42.8563 96.3464C43.4756 95.7826 46.2832 97.3909 46.2832 97.3909C46.4258 97.0782 46.4996 96.7387 46.4996 96.3952C46.4996 96.0517 46.4258 95.7122 46.2832 95.3995C45.8084 94.2622 45.0006 90.7064 46.0385 89.5691C47.0763 88.4318 50.2218 82.8845 50.2218 82.8845L51.1495 82.9284C50.66 85.5422 47.8131 100.944 47.4655 102.982C47.3162 103.87 47.4264 105.34 47.6173 106.787Z" fill="black"/>
<path d="M50.2243 82.5088L51.223 82.5576L54.1604 90.4258C54.1604 90.4258 55.9204 94.5478 56.2533 95.2116C56.5862 95.8755 56.4418 98.6284 56.2533 99.4313C56.0648 100.234 54.8262 103.792 54.7846 104.693C54.743 105.594 52.5008 106.494 50.2194 106.35C47.938 106.206 42.6139 106.921 42.6139 106.921C42.6139 106.921 36.9252 106.328 33.437 108.105C33.437 108.105 31.2021 103.507 31.4395 94.9261C31.4395 94.9261 35.3855 94.6821 36.3842 95.0677C37.3829 95.4533 42.2321 96.532 42.8514 95.9682C43.4707 95.4044 46.2784 97.0103 46.2784 97.0103C46.421 96.6981 46.4948 96.3589 46.4948 96.0158C46.4948 95.6727 46.421 95.3335 46.2784 95.0213C45.8035 93.8816 44.9957 90.3282 46.0336 89.1909C47.0715 88.0536 50.2243 82.5088 50.2243 82.5088Z" fill="#FF8822"/>
<path d="M40.1917 99.9187L41.3779 100.651L47.9895 90.0071L46.8033 89.2747L40.1917 99.9187Z" fill="#DFE6F5"/>
<path d="M51.3688 88.5757C52.5376 86.6942 52.4126 84.5067 51.0897 83.6898C49.7668 82.873 47.7469 83.7362 46.5781 85.6178C45.4094 87.4993 45.5343 89.6868 46.8572 90.5036C48.1801 91.3205 50.2 90.4573 51.3688 88.5757Z" fill="#DFE6F5"/>
<path opacity="0.1" d="M50.692 88.1578C51.5305 86.808 51.4406 85.2385 50.4913 84.6523C49.5419 84.0661 48.0926 84.6852 47.2541 86.0351C46.4156 87.385 46.5054 88.9544 47.4548 89.5406C48.4042 90.1268 49.8535 89.5077 50.692 88.1578Z" fill="black"/>
<path d="M36.8128 105.36L37.999 106.093L42.1129 99.4699L40.9267 98.7374L36.8128 105.36Z" fill="#53526B"/>
<path d="M29.8264 105.83L32.7271 105.025C32.7271 105.025 47.0372 105.403 42.2345 99.5265C42.2345 99.5265 39.7157 97.108 34.4382 99.0506C29.1606 100.993 27.687 101.232 27.687 101.232L29.8264 105.83Z" fill="#FDC2CC"/>
<path opacity="0.1" d="M27.6895 81.0396C28.0045 81.0396 28.2598 80.785 28.2598 80.471C28.2598 80.1569 28.0045 79.9023 27.6895 79.9023C27.3745 79.9023 27.1191 80.1569 27.1191 80.471C27.1191 80.785 27.3745 81.0396 27.6895 81.0396Z" fill="black"/>
<path opacity="0.1" d="M37.4834 80.7076C37.7984 80.7076 38.0538 80.453 38.0538 80.1389C38.0538 79.8249 37.7984 79.5703 37.4834 79.5703C37.1684 79.5703 36.9131 79.8249 36.9131 80.1389C36.9131 80.453 37.1684 80.7076 37.4834 80.7076Z" fill="black"/>
<path d="M27.6895 80.8492C28.0045 80.8492 28.2598 80.5946 28.2598 80.2806C28.2598 79.9665 28.0045 79.7119 27.6895 79.7119C27.3745 79.7119 27.1191 79.9665 27.1191 80.2806C27.1191 80.5946 27.3745 80.8492 27.6895 80.8492Z" fill="white"/>
<path opacity="0.1" d="M28.4995 88.9078C28.8145 88.9078 29.0699 88.6532 29.0699 88.3391C29.0699 88.0251 28.8145 87.7705 28.4995 87.7705C28.1846 87.7705 27.9292 88.0251 27.9292 88.3391C27.9292 88.6532 28.1846 88.9078 28.4995 88.9078Z" fill="black"/>
<path opacity="0.1" d="M37.7696 88.3392C38.0846 88.3392 38.3399 88.0846 38.3399 87.7705C38.3399 87.4565 38.0846 87.2019 37.7696 87.2019C37.4546 87.2019 37.1992 87.4565 37.1992 87.7705C37.1992 88.0846 37.4546 88.3392 37.7696 88.3392Z" fill="black"/>
<path d="M28.4995 88.7176C28.8145 88.7176 29.0699 88.463 29.0699 88.149C29.0699 87.8349 28.8145 87.5803 28.4995 87.5803C28.1846 87.5803 27.9292 87.8349 27.9292 88.149C27.9292 88.463 28.1846 88.7176 28.4995 88.7176Z" fill="white"/>
<path opacity="0.1" d="M37.5323 115.788C37.8473 115.788 38.1026 115.533 38.1026 115.219C38.1026 114.905 37.8473 114.65 37.5323 114.65C37.2173 114.65 36.9619 114.905 36.9619 115.219C36.9619 115.533 37.2173 115.788 37.5323 115.788Z" fill="black"/>
<path opacity="0.1" d="M30.022 115.788C30.337 115.788 30.5924 115.533 30.5924 115.219C30.5924 114.905 30.337 114.65 30.022 114.65C29.707 114.65 29.4517 114.905 29.4517 115.219C29.4517 115.533 29.707 115.788 30.022 115.788Z" fill="black"/>
<path d="M37.5323 115.597C37.8473 115.597 38.1026 115.343 38.1026 115.029C38.1026 114.715 37.8473 114.46 37.5323 114.46C37.2173 114.46 36.9619 114.715 36.9619 115.029C36.9619 115.343 37.2173 115.597 37.5323 115.597Z" fill="white"/>
<path opacity="0.1" d="M30.5923 125.311C30.9073 125.311 31.1627 125.056 31.1627 124.742C31.1627 124.428 30.9073 124.173 30.5923 124.173C30.2773 124.173 30.022 124.428 30.022 124.742C30.022 125.056 30.2773 125.311 30.5923 125.311Z" fill="black"/>
<path opacity="0.1" d="M37.7696 124.742C38.0846 124.742 38.3399 124.487 38.3399 124.173C38.3399 123.859 38.0846 123.605 37.7696 123.605C37.4546 123.605 37.1992 123.859 37.1992 124.173C37.1992 124.487 37.4546 124.742 37.7696 124.742Z" fill="black"/>
<path d="M30.5923 125.123C30.9073 125.123 31.1627 124.868 31.1627 124.554C31.1627 124.24 30.9073 123.985 30.5923 123.985C30.2773 123.985 30.022 124.24 30.022 124.554C30.022 124.868 30.2773 125.123 30.5923 125.123Z" fill="white"/>
<path d="M30.022 115.597C30.337 115.597 30.5924 115.343 30.5924 115.029C30.5924 114.715 30.337 114.46 30.022 114.46C29.707 114.46 29.4517 114.715 29.4517 115.029C29.4517 115.343 29.707 115.597 30.022 115.597Z" fill="white"/>
<path d="M37.7696 124.552C38.0846 124.552 38.3399 124.297 38.3399 123.983C38.3399 123.669 38.0846 123.414 37.7696 123.414C37.4546 123.414 37.1992 123.669 37.1992 123.983C37.1992 124.297 37.4546 124.552 37.7696 124.552Z" fill="white"/>
<path d="M37.4834 80.5174C37.7984 80.5174 38.0538 80.2628 38.0538 79.9488C38.0538 79.6347 37.7984 79.3801 37.4834 79.3801C37.1684 79.3801 36.9131 79.6347 36.9131 79.9488C36.9131 80.2628 37.1684 80.5174 37.4834 80.5174Z" fill="white"/>
<path d="M37.7696 88.1488C38.0846 88.1488 38.3399 87.8942 38.3399 87.5801C38.3399 87.2661 38.0846 87.0115 37.7696 87.0115C37.4546 87.0115 37.1992 87.2661 37.1992 87.5801C37.1992 87.8942 37.4546 88.1488 37.7696 88.1488Z" fill="white"/>
<path opacity="0.1" d="M38.624 107.536C38.624 107.536 38.7197 120.525 39.0066 122.846C39.0066 122.846 39.1097 108.149 38.624 107.536Z" fill="black"/>
<path opacity="0.1" d="M41.0498 113.557C40.8539 113.557 44.9467 128.771 45.1377 129.862C45.3286 130.953 42.1905 113.557 41.0498 113.557Z" fill="black"/>
<path opacity="0.1" d="M44.2808 111.092C44.2808 111.234 46.5646 119.339 47.7077 119.766C48.8509 120.193 44.2808 111.092 44.2808 111.092Z" fill="black"/>
<path opacity="0.1" d="M53.267 95.3069C53.267 95.3069 48.4178 95.5217 48.2758 96.2197C48.1339 96.9177 53.267 95.3069 53.267 95.3069Z" fill="black"/>
<path opacity="0.1" d="M44.709 157.108C44.709 157.108 41.238 158.572 41.7716 158.67C42.3052 158.767 44.709 157.108 44.709 157.108Z" fill="black"/>
<path opacity="0.1" d="M37.5297 154.936C37.3951 154.633 39.8601 156.156 39.8601 156.359C39.8601 156.561 37.7207 155.363 37.5297 154.936Z" fill="black"/>
<path opacity="0.1" d="M40.7632 159.912C40.7632 159.912 43.4729 159.778 43.6639 160.818C43.8548 161.857 40.7632 159.912 40.7632 159.912Z" fill="black"/>
<path opacity="0.1" d="M21.271 159.907C21.271 159.907 24.2084 159.333 24.4532 159.907C24.698 160.481 21.271 159.907 21.271 159.907Z" fill="black"/>
<path opacity="0.1" d="M22.3655 177.784C22.3655 177.784 22.5588 180.2 21.8441 180.769C21.1293 181.337 22.3655 177.784 22.3655 177.784Z" fill="black"/>
<path opacity="0.1" d="M22.0054 182.902C22.9356 182.997 27.8312 182.142 27.7847 182.902C27.7382 183.662 22.0054 182.902 22.0054 182.902Z" fill="black"/>
<path opacity="0.1" d="M44.4718 179.963C44.4718 179.963 42.8024 179.719 43.2088 180.831L44.4718 179.963Z" fill="black"/>
<path opacity="0.1" d="M13.4257 85.3568H12.5225L11.1443 90.3818C11.1443 90.3818 10.6695 92.1365 10.1946 92.5636C9.7197 92.9907 10.6205 96.876 10.6205 96.876C10.6205 96.876 10.0991 99.6264 9.67074 100.337C9.24237 101.047 10.3366 102.802 10.3366 102.802L12.5225 107.927L18.3239 109.445C18.3239 109.445 28.546 111.673 29.0209 112.005C29.4958 112.337 29.9242 111.861 30.2449 108.781C30.5655 105.701 31.481 99.7265 32.2031 99.4434C32.2031 99.4434 26.4972 100.058 26.0223 99.9632C25.5474 99.868 23.2661 100.012 23.2661 100.012C23.2661 100.012 20.2699 99.8217 19.795 100.107C19.3201 100.393 20.4119 98.7308 20.4119 98.7308C20.612 97.97 20.612 97.1706 20.4119 96.4098C20.0814 95.1188 19.8929 80.6124 13.4257 85.3568Z" fill="black"/>
<path opacity="0.1" d="M32.0147 100C31.3024 100.283 30.3992 106.258 30.0565 109.337C29.7138 112.417 29.2952 112.893 28.8325 112.561C28.4458 112.29 21.6334 110.77 19.0877 110.209C19.4891 107.849 19.7045 105.213 19.7045 105.213L12.4785 85.9329H13.2398C19.7045 81.191 19.8955 95.695 20.2284 96.9763C20.4285 97.737 20.4285 98.5364 20.2284 99.2972C20.2284 99.2972 19.1342 100.957 19.6091 100.674C20.084 100.391 23.0801 100.578 23.0801 100.578C23.0801 100.578 25.3615 100.437 25.8388 100.532C26.3162 100.627 32.0147 100 32.0147 100Z" fill="black"/>
<path d="M13.2373 85.5424H12.334L10.9534 90.5674C10.9534 90.5674 10.4785 92.3197 10.0037 92.7468C9.52878 93.1738 10.432 97.0713 10.432 97.0713C10.432 97.0713 9.90819 99.8194 9.47982 100.532C9.05145 101.245 10.1456 102.994 10.1456 102.994L12.334 108.12L18.1329 109.638C18.1329 109.638 28.3551 111.863 28.83 112.195C29.3049 112.527 29.7333 112.054 30.0539 108.974C30.3746 105.894 31.2778 99.9194 32.0122 99.6363C32.0122 99.6363 26.3087 100.251 25.8338 100.156C25.359 100.061 23.0751 100.205 23.0751 100.205C23.0751 100.205 20.079 100.015 19.6041 100.298C19.1292 100.581 20.2234 98.9212 20.2234 98.9212C20.4237 98.1605 20.4237 97.3611 20.2234 96.6003C19.8929 95.3069 19.702 80.8029 13.2373 85.5424Z" fill="#FF8822"/>
<path opacity="0.1" d="M16.3266 102.702C16.3266 102.702 13.7123 107.632 13.2374 107.063C12.7625 106.494 16.3266 102.702 16.3266 102.702Z" fill="black"/>
<path opacity="0.1" d="M13.6168 99.895C13.6168 99.895 11.1934 101.896 12.3341 102.416C13.4748 102.936 13.6168 99.895 13.6168 99.895Z" fill="black"/>
<path opacity="0.1" d="M15.8979 97.4399C16.0889 97.4888 19.4179 98.1477 19.4645 98.4332C19.511 98.7188 15.8979 97.4399 15.8979 97.4399Z" fill="black"/>
<path opacity="0.1" d="M38.9789 62.7162C38.8755 62.7523 38.7872 62.8219 38.7282 62.914C38.6692 63.006 38.6428 63.1151 38.6533 63.2238C38.46 63.3947 38.1858 63.1946 38.0291 62.9798C37.8725 62.765 37.6889 62.4917 37.4466 62.5259C37.3317 62.5624 37.2203 62.6089 37.1137 62.665C36.7342 62.7845 36.4136 62.3404 36.2006 61.9499L35.0868 59.8974C34.3525 60.3294 33.4639 59.8779 32.7271 59.4313C31.9903 58.9847 31.1115 58.5332 30.365 58.9627C29.2708 59.5924 29.2316 61.6912 28.0983 62.2086C27.7335 62.377 27.3101 62.3404 26.9698 62.5698C26.6296 62.7992 26.4558 63.236 26.304 63.6534C26.2497 63.8923 26.1191 64.1073 25.9319 64.2659C25.8136 64.3283 25.6815 64.3602 25.5476 64.3587C25.2147 64.4142 24.8726 64.3656 24.5685 64.2196C24.4093 64.1193 24.2888 63.9682 24.2266 63.791C24.1643 63.6138 24.1641 63.4208 24.2258 63.2434C24.2349 63.2239 24.2456 63.2051 24.2576 63.1872C24.379 63.0404 24.4879 62.8836 24.5832 62.7187C24.6982 62.4185 24.5342 62.067 24.5832 61.7424C24.6419 61.186 25.2343 60.8907 25.3346 60.344C25.3763 60.1293 25.3346 59.8999 25.3714 59.6851C25.3781 59.6562 25.3862 59.6277 25.3958 59.5997L25.0482 59.8437C25.4375 59.3922 25.6333 58.7626 25.9172 58.211C26.2343 57.6092 26.6704 57.0776 27.1992 56.6485C27.7281 56.2194 28.3387 55.9016 28.9942 55.7144C30.2352 55.3556 31.5448 55.4532 32.7957 55.7583C33.9861 56.0539 35.1266 56.5218 36.181 57.147C36.5549 57.3501 36.8871 57.6217 37.1602 57.9475C37.3898 58.2851 37.5849 58.6449 37.7427 59.0213C38.1124 59.7827 39.1209 60.4856 38.318 60.5954C37.6497 60.6833 38.2592 61.1494 38.6093 61.4642C38.688 61.5267 38.7558 61.6018 38.81 61.6863C38.8685 61.8059 38.8954 61.9384 38.8881 62.0712C38.8808 62.204 38.8396 62.3328 38.7684 62.4453C38.6166 62.5991 39.1649 62.6332 38.9789 62.7162Z" fill="black"/>
<path d="M38.9789 62.5282C38.8755 62.5643 38.7872 62.6339 38.7282 62.726C38.6692 62.818 38.6428 62.9271 38.6533 63.0358C38.46 63.2067 38.1858 63.0041 38.0291 62.7918C37.8725 62.5795 37.6889 62.3037 37.4466 62.3379C37.3317 62.3744 37.2203 62.4209 37.1136 62.477C36.7342 62.599 36.4136 62.1524 36.2006 61.7619C35.8285 61.0786 35.4662 60.3928 35.0868 59.7119C34.3525 60.1414 33.4639 59.6899 32.7271 59.2433C31.9903 58.7967 31.1115 58.3452 30.3649 58.7747C29.2708 59.4044 29.2316 61.5032 28.0982 62.023C27.7335 62.189 27.31 62.1524 26.9698 62.3818C26.6295 62.6112 26.4557 63.048 26.304 63.4678C26.2497 63.7061 26.1191 63.9202 25.9319 64.0779C25.8137 64.1411 25.6816 64.1738 25.5476 64.1731C25.2146 64.2275 24.8729 64.179 24.5685 64.034C24.4099 63.9331 24.2899 63.782 24.2278 63.605C24.1657 63.428 24.1649 63.2353 24.2258 63.0578C24.2349 63.0383 24.2455 63.0195 24.2576 63.0017C24.353 62.8357 24.5024 62.7186 24.5831 62.5331C24.6982 62.2329 24.5342 61.8815 24.5831 61.5569C24.6419 60.998 25.2343 60.7052 25.3346 60.156C25.3762 59.9413 25.3346 59.7119 25.3714 59.4971C25.378 59.469 25.3862 59.4413 25.3958 59.4141L25.0482 59.6582C25.4374 59.2042 25.6333 58.5746 25.9172 58.0255C26.2342 57.4233 26.6703 56.8915 27.1991 56.4619C27.728 56.0324 28.3386 55.7142 28.9942 55.5264C30.2352 55.1676 31.5448 55.2653 32.7957 55.5703C33.9866 55.8656 35.1273 56.3343 36.181 56.9614C36.5554 57.1629 36.8877 57.4337 37.1602 57.7595C37.3898 58.0972 37.5849 58.4569 37.7427 58.8333C38.1124 59.5972 39.1209 60.2976 38.318 60.4074C37.6497 60.4977 38.2592 60.9638 38.6093 61.2787C38.6883 61.3399 38.7562 61.4142 38.81 61.4983C38.8685 61.6179 38.8954 61.7504 38.8881 61.8832C38.8808 62.016 38.8396 62.1448 38.7684 62.2573C38.6166 62.416 39.1649 62.4428 38.9789 62.5282Z" fill="#865A61"/>
<path opacity="0.1" d="M38.5919 61.2594L38.5161 62.0574C38.5161 62.0574 30.5361 51.9733 24.3186 63.3606C24.3186 63.3606 24.2892 63.2215 24.2378 62.9872C24.3333 62.8213 24.4826 62.7042 24.5634 62.5187C24.6784 62.2185 24.5144 61.8671 24.5634 61.5425C24.6221 60.9836 25.2145 60.6907 25.3148 60.1416C25.3565 59.9269 25.3148 59.6975 25.3516 59.4827C25.3583 59.4546 25.3664 59.4269 25.376 59.3997L25.0284 59.6438C25.4177 59.1898 25.6135 58.5602 25.8974 58.0111C26.2144 57.4089 26.6505 56.877 27.1793 56.4475C27.7082 56.018 28.3188 55.6998 28.9744 55.512C30.2154 55.1532 31.525 55.2509 32.7759 55.5559C33.9668 55.8512 35.1075 56.3199 36.1612 56.947C36.5356 57.1484 36.8679 57.4193 37.1404 57.745C37.37 58.0827 37.5651 58.4425 37.723 58.8189C38.0926 59.5827 39.1011 60.2832 38.2982 60.393C37.6324 60.4784 38.2419 60.9519 38.5919 61.2594Z" fill="black"/>
<g opacity="0.1">
<path opacity="0.1" d="M38.7881 62.416C38.7491 62.4606 38.7207 62.5134 38.705 62.5704C38.6893 62.6275 38.6868 62.6873 38.6975 62.7455C38.5042 62.9163 38.2325 62.7138 38.0758 62.5014C37.9191 62.2891 37.7331 62.0133 37.4932 62.0475C37.3782 62.0835 37.2667 62.1301 37.1603 62.1866C36.7784 62.3086 36.4578 61.862 36.2448 61.4715L35.1335 59.4191C34.3991 59.851 33.5106 59.3995 32.7738 58.9529C32.037 58.5063 31.1557 58.0548 30.4116 58.4844C29.3174 59.114 29.2782 61.2128 28.1449 61.7302C27.7777 61.8986 27.3542 61.862 27.0164 62.0914C26.6786 62.3208 26.4999 62.7577 26.3506 63.175C26.2954 63.4135 26.165 63.6282 25.9786 63.7876C25.8604 63.8505 25.7282 63.8825 25.5942 63.8803C25.2615 63.9369 24.9194 63.8892 24.6151 63.7436C24.4311 63.6209 24.2987 63.435 24.243 63.2214C24.2056 63.3914 24.2212 63.5688 24.2877 63.7297C24.3542 63.8906 24.4684 64.0275 24.6151 64.1219C24.9195 64.267 25.2613 64.3156 25.5942 64.261C25.7279 64.2608 25.8596 64.229 25.9786 64.1683C26.1644 64.0085 26.2947 63.794 26.3506 63.5557C26.4999 63.136 26.6811 62.6991 27.0164 62.4697C27.3518 62.2403 27.7777 62.2769 28.1449 62.1109C29.2782 61.5936 29.3174 59.4947 30.4116 58.8651C31.1459 58.4331 32.0345 58.887 32.7738 59.3336C33.513 59.7803 34.3893 60.2293 35.1335 59.7998L36.2448 61.8498C36.4578 62.2403 36.7784 62.6869 37.1603 62.5649C37.2673 62.5102 37.3786 62.4645 37.4932 62.4282C37.738 62.3965 37.9142 62.6723 38.0758 62.8797C38.2373 63.0871 38.5042 63.2995 38.6975 63.1238C38.687 63.015 38.7134 62.9059 38.7724 62.8139C38.8314 62.7218 38.9197 62.6522 39.0231 62.6161C39.1724 62.5576 38.8566 62.5209 38.7881 62.416Z" fill="black"/>
<path opacity="0.1" d="M38.1662 60.53C38.2242 60.5071 38.2852 60.4923 38.3473 60.4861C38.6998 60.4372 38.7023 60.2736 38.5627 60.0415C38.4959 60.0769 38.4227 60.0985 38.3473 60.105C37.9655 60.1563 37.9997 60.3322 38.1662 60.53Z" fill="black"/>
<path opacity="0.1" d="M38.8956 62.1186C38.9225 61.9963 38.9225 61.8696 38.8956 61.7473C38.8786 61.8224 38.8461 61.893 38.8004 61.9549C38.7368 62.0306 38.8101 62.0795 38.8956 62.1186Z" fill="black"/>
<path opacity="0.1" d="M24.6182 61.5715C24.6171 61.5935 24.6171 61.6155 24.6182 61.6375C24.6099 61.8085 24.6222 61.9799 24.6549 62.148C24.673 61.9551 24.6606 61.7606 24.6182 61.5715Z" fill="black"/>
<path opacity="0.1" d="M25.3916 59.2588C25.3003 59.4276 25.1927 59.5871 25.0703 59.7351L25.3793 59.525C25.376 59.4361 25.3801 59.347 25.3916 59.2588Z" fill="black"/>
</g>
<path d="M24.3286 63.1703C24.3286 63.1703 23.1806 58.0452 23.5453 57.235C23.5453 57.235 22.5662 55.2094 22.5662 54.7261C22.5163 53.9209 22.2637 53.1412 21.8318 52.4589C21.3104 51.6389 20.7376 47.8219 23.866 46.9116C26.9943 46.0013 29.3957 45.174 29.7604 44.5468C30.1251 43.9195 35.4981 44.3027 36.9595 46.7188C38.4209 49.1349 39.3584 48.6468 39.3584 48.6468C39.3584 48.6468 41.6006 50.0477 41.6006 51.3021C41.6006 52.5565 40.9225 53.1837 41.6006 53.4717C42.2786 53.7597 41.7573 58.9726 38.7831 59.1166L38.5237 61.8671C38.5237 61.8671 30.5364 51.7829 24.3286 63.1703Z" fill="#FF8822"/>
<path opacity="0.1" d="M24.671 47.9072C24.671 47.9072 23.9807 51.9365 25.2414 53.2763L24.671 47.9072Z" fill="black"/>
<path opacity="0.1" d="M27.9023 46.9822C27.9023 46.9822 26.1448 51.297 26.5731 52.1268L27.9023 46.9822Z" fill="black"/>
<path opacity="0.1" d="M29.4249 45.6084C29.4249 45.6084 28.2353 51.2216 28.8056 51.6755L29.4249 45.6084Z" fill="black"/>
<path opacity="0.1" d="M31.4687 47.1238C31.4687 47.1238 30 50.7284 30.5899 51.2238L31.4687 47.1238Z" fill="black"/>
<path opacity="0.1" d="M34.2499 47.5508C34.2499 47.5508 32.5143 50.4794 32.8717 51.0114L34.2499 47.5508Z" fill="black"/>
<path opacity="0.1" d="M37.8162 50.4185C37.8162 50.4185 35.9607 50.9066 36.3475 51.5094L37.8162 50.4185Z" fill="black"/>
<path opacity="0.1" d="M39.5763 53.4766C39.5763 53.4766 37.9118 54.2819 38.2202 54.709L39.5763 53.4766Z" fill="black"/>
<path opacity="0.1" d="M23.5454 57.235C23.5454 57.235 34.1739 52.9323 38.7759 59.1166C38.7759 59.1166 33.1899 54.382 23.5454 57.235Z" fill="black"/>
<path d="M19.707 92.6003L21.188 91.1067L25.3738 95.2336L23.8928 96.7272L20.0424 92.9322L19.707 92.6003Z" fill="#53526B"/>
<path d="M9.99902 83.0264C9.99902 83.0264 16.4785 83.5755 22.5124 90.3479L19.9985 92.8836L9.99902 83.0264Z" fill="#DFE6F5"/>
<path d="M29.4321 95.1312C29.4321 95.1312 23.2024 92.8664 22.5904 92.3246C21.9784 91.7828 18.3752 94.9335 22.7691 99.2166C22.7691 99.2166 28.1543 100.742 29.579 99.2166C31.0036 97.6913 29.4321 95.1312 29.4321 95.1312Z" fill="#FDC2CC"/>
<path d="M211.331 124.74H210.066V153.157H211.331V124.74Z" fill="#535461"/>
<path d="M219.289 153.069L219.209 154.35L219.098 156.156L219.052 156.908L218.939 158.716L218.89 159.471L218.778 161.277L217.502 181.823C217.447 182.707 217.056 183.537 216.408 184.144C215.761 184.751 214.905 185.089 214.017 185.089H207.383C206.495 185.088 205.64 184.751 204.993 184.144C204.345 183.537 203.955 182.707 203.9 181.823L202.622 161.277L202.509 159.471L202.463 158.716L202.348 156.908L202.304 156.156L202.191 154.35L202.11 153.069C202.095 152.824 202.13 152.577 202.214 152.346C202.298 152.114 202.428 151.903 202.597 151.723C202.766 151.544 202.97 151.401 203.197 151.303C203.423 151.206 203.668 151.156 203.915 151.156H217.488C217.734 151.156 217.978 151.206 218.205 151.304C218.431 151.402 218.635 151.545 218.803 151.724C218.972 151.903 219.102 152.115 219.186 152.346C219.27 152.578 219.305 152.824 219.289 153.069Z" fill="#65617D"/>
<path d="M219.208 154.35L219.096 156.156H202.301L202.188 154.35H219.208Z" fill="#9D9CB5"/>
<path d="M219.049 156.908L218.937 158.716H202.46L202.348 156.908H219.049Z" fill="#9D9CB5"/>
<path d="M218.888 159.47L218.778 161.276H202.619L202.507 159.47H218.888Z" fill="#9D9CB5"/>
<path d="M200.255 135.387C207.628 140.705 210.698 149.023 210.698 149.023C210.698 149.023 201.814 148.72 194.442 143.409C187.069 138.099 183.999 129.774 183.999 129.774C183.999 129.774 192.882 130.072 200.255 135.387Z" fill="#FF8822"/>
<path d="M183.999 129.774C183.999 129.774 193.22 134.877 196.177 139.102C199.134 143.326 210.698 149.03 210.698 149.03" stroke="#535461" stroke-width="2" stroke-miterlimit="10"/>
<path d="M205.013 124.676C209.025 127.57 210.697 132.097 210.697 132.097C210.697 132.097 205.863 131.932 201.848 129.04C197.834 126.148 196.165 121.618 196.165 121.618C196.165 121.618 201.001 121.781 205.013 124.676Z" fill="#FF8822"/>
<path d="M196.165 121.618C196.165 121.618 201.175 124.405 202.793 126.694C204.411 128.983 210.697 132.097 210.697 132.097" stroke="#535461" stroke-width="2" stroke-miterlimit="10"/>
<path d="M216.528 131.868C211.919 136.918 210.945 143.519 210.945 143.519C210.945 143.519 217.444 141.928 222.053 136.879C226.662 131.829 227.637 125.228 227.637 125.228C227.637 125.228 221.138 126.816 216.528 131.868Z" fill="#FF8822"/>
<path d="M227.637 125.228C227.637 125.228 221.632 130.404 220.107 133.972C218.582 137.54 210.945 143.519 210.945 143.519" stroke="#535461" stroke-width="2" stroke-miterlimit="10"/>
</g>
<defs>
<linearGradient id="paint0_linear" x1="32.9228" y1="198.714" x2="32.9228" y2="43.6046" gradientUnits="userSpaceOnUse">
<stop stop-color="#808080" stop-opacity="0.25"/>
<stop offset="0.54" stop-color="#808080" stop-opacity="0.12"/>
<stop offset="1" stop-color="#808080" stop-opacity="0.1"/>
</linearGradient>
<clipPath id="clip0">
<rect x="0.0288086" width="230.947" height="200" fill="white"/>
</clipPath>
</defs>
</svg>
