<svg width="24" height="24" viewBox="0 0 24 24" fill="none" xmlns="http://www.w3.org/2000/svg">
<path d="M7.55566 13C8.10795 13 8.55566 12.5523 8.55566 12C8.55566 11.4477 8.10795 11 7.55566 11C7.00338 11 6.55566 11.4477 6.55566 12C6.55566 12.5523 7.00338 13 7.55566 13Z" fill="#FF8822"/>
<path d="M7.55566 16.5557C8.10795 16.5557 8.55566 16.1079 8.55566 15.5557C8.55566 15.0034 8.10795 14.5557 7.55566 14.5557C7.00338 14.5557 6.55566 15.0034 6.55566 15.5557C6.55566 16.1079 7.00338 16.5557 7.55566 16.5557Z" fill="#FF8822"/>
<path d="M7.55566 9.44434C8.10795 9.44434 8.55566 8.99662 8.55566 8.44434C8.55566 7.89205 8.10795 7.44434 7.55566 7.44434C7.00338 7.44434 6.55566 7.89205 6.55566 8.44434C6.55566 8.99662 7.00338 9.44434 7.55566 9.44434Z" fill="#FF8822"/>
<path d="M16.4449 7.55566H11.1115C10.6206 7.55566 10.2227 7.95363 10.2227 8.44455C10.2227 8.93547 10.6206 9.33344 11.1115 9.33344H16.4449C16.9358 9.33344 17.3338 8.93547 17.3338 8.44455C17.3338 7.95363 16.9358 7.55566 16.4449 7.55566Z" fill="#FF8822"/>
<path d="M16.4449 11.1111H11.1115C10.6206 11.1111 10.2227 11.5091 10.2227 12C10.2227 12.4909 10.6206 12.8889 11.1115 12.8889H16.4449C16.9358 12.8889 17.3338 12.4909 17.3338 12C17.3338 11.5091 16.9358 11.1111 16.4449 11.1111Z" fill="#FF8822"/>
<path d="M16.4449 14.6667H11.1115C10.6206 14.6667 10.2227 15.0647 10.2227 15.5556C10.2227 16.0466 10.6206 16.4445 11.1115 16.4445H16.4449C16.9358 16.4445 17.3338 16.0466 17.3338 15.5556C17.3338 15.0647 16.9358 14.6667 16.4449 14.6667Z" fill="#FF8822"/>
<path d="M18 4H6C4.89543 4 4 4.89543 4 6V18C4 19.1046 4.89543 20 6 20H18C19.1046 20 20 19.1046 20 18V6C20 4.89543 19.1046 4 18 4Z" stroke="#FF8822" stroke-width="2" stroke-linecap="round" stroke-linejoin="round"/>
</svg>
